{"title":"Zoo.S01E07.HDTV.480p.x264.AAC-VYTO [P2PDL]","uid":12221118,"size":152840161,"categoryP":"video","categoryS":"hd___tv_shows","magnet":"?xt=urn:btih:f1be1369b7ee67f1f634bc859bea657ce1b1d1db&amp;dn=Zoo.S01E07.HDTV.480p.x264.AAC-VYTO+%5BP2PDL%5D&amp;tr=udp%3A%2F%2Ftracker.openbittorrent.com%3A80&amp;tr=udp%3A%2F%2Fopen.demonii.com%3A1337&amp;tr=udp%3A%2F%2Ftracker.coppersurfer.tk%3A6969&amp;tr=udp%3A%2F%2Fexodus.desync.com%3A6969","seeders":1,"leechers":0,"uploader":"ValidusVyto","files":6,"time":1439366046,"description":"____    ____ ____    ____ .___________.  ______   \n     /   /      /   / |           | /  __    \n    /   /      /   /  `---|  |----`|  |  |  | \n        /     _    _/       |  |     |  |  |  | \n       /        |  |         |  |     |  `--'  | \n    __/         |__|         |__|      ______/  \n                                                  \nPresenting Small Encodes with quality for years!\n                                                                                                   \n                                                                                                   \n\nZoo.S01E07.HDTV.480p.x264.AAC-VYTO\n\n\nGeneral\nFormat                         : MPEG-4\nFile size                      : 141 MiB\nDuration                       : 41mn 51s\nOverall bit rate               : 472 Kbps\n\nVideo\nFormat                         : AVC\nBit rate                       : 437 Kbps\nWidth                          : 720 pixels\nHeight                         : 400 pixels\nDisplay aspect ratio           : 16:9\nFrame rate mode                : Constant\nFrame rate                     : 23.976 fps\nBit depth                      : 8 bits\nStream size                    : 131 MiB (93%)\nWriting library                : x264 core 148 r2579\n\nAudio\nFormat                         : AAC\nBit rate mode                  : Variable\nBit rate                       : 32.0 Kbps\nChannel(s)                     : 2 channels\nChannel positions              : Front: L R\nSampling rate                  : 48.0 KHz\nStream size                    : 9.58 MiB (7%)\n\n\n\nScreenshots:\n &lt;a href=&quot;\nhttp://ititli.com/GE&quot; rel=&quot;nofollow&quot; target=&quot;_NEW&quot;&gt;\nhttp://ititli.com/GE&lt;/a&gt; &lt;a href=&quot;\nhttp://ititli.com/GQ&quot; rel=&quot;nofollow&quot; target=&quot;_NEW&quot;&gt;\nhttp://ititli.com/GQ&lt;/a&gt; &lt;a href=&quot;\nhttp://ititli.com/GS&quot; rel=&quot;nofollow&quot; target=&quot;_NEW&quot;&gt;\nhttp://ititli.com/GS&lt;/a&gt; &lt;a href=&quot;\nhttp://ititli.com/GZ&quot; rel=&quot;nofollow&quot; target=&quot;_NEW&quot;&gt;\nhttp://ititli.com/GZ&lt;/a&gt; &lt;a href=&quot;\nhttp://ititli.com/Gc&quot; rel=&quot;nofollow&quot; target=&quot;_NEW&quot;&gt;\nhttp://ititli.com/Gc&lt;/a&gt; &lt;a href=&quot;\nhttp://ititli.com/Gi&quot; rel=&quot;nofollow&quot; target=&quot;_NEW&quot;&gt;\nhttp://ititli.com/Gi&lt;/a&gt; &lt;a href=&quot;\nhttp://ititli.com/Gp&quot; rel=&quot;nofollow&quot; target=&quot;_NEW&quot;&gt;\nhttp://ititli.com/Gp&lt;/a&gt; &lt;a href=&quot;\nhttp://ititli.com/GD&quot; rel=&quot;nofollow&quot; target=&quot;_NEW&quot;&gt;\nhttp://ititli.com/GD&lt;/a&gt; &lt;a href=&quot;\nhttp://ititli.com/Ga&quot; rel=&quot;nofollow&quot; target=&quot;_NEW&quot;&gt;\nhttp://ititli.com/Ga&lt;/a&gt; &lt;a href=&quot;\nhttp://ititli.com/Gb&quot; rel=&quot;nofollow&quot; target=&quot;_NEW&quot;&gt;\nhttp://ititli.com/Gb&lt;/a&gt; &lt;a href=&quot;\nhttp://ititli.com/Gz&quot; rel=&quot;nofollow&quot; target=&quot;_NEW&quot;&gt;\nhttp://ititli.com/Gz&lt;/a&gt; &lt;a href=&quot;\nhttp://ititli.com/GI&quot; rel=&quot;nofollow&quot; target=&quot;_NEW&quot;&gt;\nhttp://ititli.com/GI&lt;/a&gt;\n\n----------------------------------------------------------------------------------------------------\n\n\nEncoder Notes: Looking For Early Access To Anything You Can Provide DVDScr, R5, DVDR, BluRay, Direct\nAudio, Music Releases and Seedboxes. If You Got anything to offer please contact us.\n\nSupport us by donating BC - 1FgwdzPsd1y25Gea8wP1qni35uGCtmkRCD","torrent":{"xt":"urn:btih:f1be1369b7ee67f1f634bc859bea657ce1b1d1db","amp;dn":"Zoo.S01E07.HDTV.480p.x264.AAC-VYTO+%5BP2PDL%5D","amp;tr":["udp%3A%2F%2Ftracker.openbittorrent.com%3A80","udp%3A%2F%2Fopen.demonii.com%3A1337","udp%3A%2F%2Ftracker.coppersurfer.tk%3A6969","udp%3A%2F%2Fexodus.desync.com%3A6969"],"infoHash":"f1be1369b7ee67f1f634bc859bea657ce1b1d1db","infoHashBuffer":{"type":"Buffer","data":[241,190,19,105,183,238,103,241,246,52,188,133,155,234,101,124,225,177,209,219]},"announce":[],"urlList":[]}}